<?xml version="1.0" encoding="utf-8"?>
<!-- Generator: Adobe Illustrator 23.0.1, SVG Export Plug-In . SVG Version: 6.00 Build 0)  -->
<svg version="1.1" id="Livello_1" xmlns="http://www.w3.org/2000/svg" xmlns:xlink="http://www.w3.org/1999/xlink" x="0px" y="0px"
	 viewBox="0 0 499.6 77.4" style="enable-background:new 0 0 499.6 77.4;" xml:space="preserve">
<style type="text/css">
	.st0{fill:#FFFFFF;}
	.st1{fill:#EA5B0C;}
	.st2{fill:none;stroke:#FFFFFF;stroke-width:5;stroke-miterlimit:10;}
</style>
<g>
	<g>
		<path class="st0" d="M35.5,44.7c0.2,4,2.4,5.3,5.4,5.3c2.6,0,4.9-0.9,7.7-2.8l3.2,5.3c-3.3,2.4-7.3,4-12,4
			c-8.8,0-13.1-5.1-13.1-12.6c0-8.1,4.4-19.1,17.1-19.1c7.3,0,11.1,3.7,11.1,8.1C54.9,41.2,45,43.7,35.5,44.7z M46,33.4
			c0-1.3-0.7-2.8-3.1-2.8c-4.2,0-6.2,4.4-7,8.7C43.5,38.7,46,35.9,46,33.4z"/>
		<path class="st0" d="M81.9,28.5l-4,4.9C76,31.8,73.2,31,71,31c-2.8,0-4.1,0.9-4.1,2.4c0,1.6,1.2,2.1,5.8,3.5
			c5.1,1.6,7.8,4.3,7.8,9.1c0,5.5-4.1,10.3-13.5,10.3c-5.4,0-9.9-2.1-12.5-4.9l4.6-4.7C61,48.6,63.8,50,67,50c3.2,0,4.7-1.3,4.7-3
			c0-2-1.2-2.5-6-4.2c-5.1-1.7-7.7-4.5-7.7-8.7c0-5.1,4.4-9.6,12.9-9.6C75.1,24.7,79.4,26.2,81.9,28.5z"/>
		<path class="st0" d="M108.8,28.5l-4,4.9c-1.9-1.6-4.7-2.4-6.9-2.4c-2.8,0-4.1,0.9-4.1,2.4c0,1.6,1.2,2.1,5.8,3.5
			c5.1,1.6,7.8,4.3,7.8,9.1c0,5.5-4.1,10.3-13.5,10.3c-5.4,0-9.9-2.1-12.5-4.9l4.6-4.7c1.9,1.9,4.7,3.3,7.9,3.3c3.2,0,4.7-1.3,4.7-3
			c0-2-1.2-2.5-6-4.2c-5.1-1.7-7.7-4.5-7.7-8.7c0-5.1,4.4-9.6,12.9-9.6C102,24.7,106.3,26.2,108.8,28.5z"/>
		<path class="st0" d="M119.7,44.7c0.2,4,2.4,5.3,5.4,5.3c2.6,0,4.9-0.9,7.7-2.8l3.2,5.3c-3.3,2.4-7.3,4-12,4
			c-8.8,0-13.1-5.1-13.1-12.6c0-8.1,4.4-19.1,17.1-19.1c7.3,0,11.1,3.7,11.1,8.1C139,41.2,129.1,43.7,119.7,44.7z M130.1,33.4
			c0-1.3-0.7-2.8-3.1-2.8c-4.2,0-6.2,4.4-7,8.7C127.6,38.7,130.1,35.9,130.1,33.4z"/>
		<path class="st0" d="M167.9,27.9l-4,27.4c-1.3,8.9-6.2,11.9-12.4,11.9c-3.7,0-7.2-1.2-9.8-2.8l1.3-2.5c2.2,1.2,5,2.4,8.4,2.4
			c4.3,0,8.3-1.9,9.3-9l0.7-4.9c-2.2,3-5.3,5.1-8.9,5.1c-6,0-9.4-4.4-9.5-11.2c0-8,4.2-18.8,15.4-18.8
			C162.1,25.5,164.8,26.4,167.9,27.9z M146.4,44.3c0,5.6,2.4,8.5,6.4,8.5c3.7,0,6.5-2.4,9-6.2l2.6-17.1c-1.8-0.8-3.6-1.4-6.1-1.4
			C149.6,28.2,146.4,37.4,146.4,44.3z"/>
		<path class="st0" d="M175.7,55.5l4.2-29.4h3.3L179,55.5H175.7z"/>
		<path class="st0" d="M205.9,36.5v2.8h-15v-2.8H205.9z"/>
		<path class="st0" d="M233.7,28.8l-1.8,2.1c-2.1-1.9-4.4-2.8-7.2-2.8c-4.4,0-7.2,1.9-7.2,5c0,2.5,1.6,3.9,6.5,5.4
			c5.8,1.8,8.3,4.2,8.3,8.7c0,5.2-4.4,8.9-11.5,8.9c-5,0-8.2-1.8-10.5-4l2-2.1c2.2,2.1,4.9,3.3,8.5,3.3c5.2,0,8.1-2.5,8.1-6
			c0-3.1-1.5-4.6-6.8-6.2c-5.9-1.9-7.9-4.2-7.9-7.9c0-4.1,3.9-7.8,10.5-7.8C228.3,25.5,231.2,26.7,233.7,28.8z"/>
		<path class="st0" d="M247.6,53.3c1.6,0,3.2-0.6,4.8-1.4l1.1,2.4c-2,1.1-4,1.8-6.4,1.8c-4.5,0-7-2.7-6.2-7.8l2.8-19.6h-5l0.4-2.6
			h5.1l1.6-7.1l2.6-0.3l-1.1,7.4h7.6l-0.7,2.6H247l-2.8,19.5C243.7,51.7,244.6,53.3,247.6,53.3z"/>
		<path class="st0" d="M277.2,55.5L278,48c-2.6,4.7-6.2,8.1-11,8.1c-5.1,0-7.7-3.3-6.9-9.1l3-20.9h3.2l-3,20.8
			c-0.7,4.7,0.9,6.5,4.3,6.5c4.4,0,8-4.2,10.7-9.3l2.5-18h3.3l-4.2,29.4H277.2z"/>
		<path class="st0" d="M313,55.5h-2.8l0.4-6c-2.1,3.6-5.2,6.6-9.8,6.6c-5.7,0-9.1-4.4-9.1-11.6c0-7.6,3.6-19.1,13.9-19.1
			c4,0,6.5,2,7.9,4l2.3-15.8L319,14L313,55.5z M295.1,44.7c0,5.7,2.3,8.7,6.2,8.7c4.4,0,7.1-3.3,9.9-8.1l1.8-12.8
			c-1.4-2.5-3.5-4.3-7-4.3C297.8,28.2,295.1,38.2,295.1,44.7z"/>
		<path class="st0" d="M325,55.5l4.2-29.4h3.3l-4.2,29.4H325z M334.7,15.7c-0.2,1.2-1.1,2.2-2.6,2.2s-2.4-1.1-2.2-2.5
			c0.2-1.3,1.2-2.2,2.6-2.2C334.1,13.2,334.9,14.3,334.7,15.7z"/>
		<path class="st0" d="M365.4,37.3c0,7.2-3.6,18.8-14.8,18.8c-6.9,0-10.8-4.5-10.8-11.9s3.7-18.7,14.9-18.7
			C361.4,25.5,365.4,29.8,365.4,37.3z M343.2,44.5c0,5.9,2.7,8.9,7.4,8.9c8.7,0,11.3-10,11.3-16.3c0-5.9-2.6-8.9-7.4-8.9
			C345.7,28.2,343.2,38.4,343.2,44.5z"/>
		<path class="st0" d="M374.9,53.3c0,1.6-1.2,2.9-2.9,2.9c-1.5,0-2.4-1.1-2.4-2.4c0-1.7,1.2-2.9,2.9-2.9
			C373.9,50.8,374.9,51.9,374.9,53.3z"/>
	</g>
	<g>
		<path class="st1" d="M188.4,15.8c-0.4,2.8-2.7,4.8-5.8,4.8s-5-2.3-4.6-5.2c0.4-2.8,2.8-4.9,5.7-4.9
			C186.9,10.5,188.8,12.8,188.4,15.8z"/>
	</g>
	<rect x="10.6" y="4.9" class="st2" width="478.5" height="67.6"/>
	<g>
		<path class="st1" d="M403.2,43.6c0,1.6-1.5,3.5-4.5,5.6c-5.7,4-10.2,6.1-13.6,6.1c-1.7,0-3-0.5-4-1.5c-1.1-1.2-1.7-3-1.7-5.3
			c0-3.8,1.2-7.7,3.8-11.7c2.7-4.4,5.6-6.8,8.7-7.2c1.5-0.2,3,0.1,4.4,0.9c1.5,1,2.5,2.2,2.8,3.7c0.1,0.8,0.1,1.7-0.2,2.5
			c-0.4,1-0.9,1.5-1.7,1.5c-0.9,0-1.8-0.8-2.5-2.5c-0.5-1.1-1.2-1.7-2.1-1.7c-1.4,0-3,1-4.8,3.1c-1.3,1.6-2.7,4.7-4.2,9.2
			c-0.3,1-0.5,1.7-0.5,2.2c0,1.6,0.9,2.4,2.6,2.4c1.3,0,3.2-0.7,5.8-2.1c1.7-1.1,4.3-2.7,7.8-4.8c1.2-0.7,2.2-1.1,2.8-1.1
			C402.9,42.8,403.2,43,403.2,43.6z"/>
		<path class="st1" d="M408.6,54c-3.7-0.9-5.5-3.4-5.5-7.5c0-2.5,0.7-5.1,2.1-7.8c1.3-2.6,3-4.6,5.1-6.3c2.6-2.1,5.3-3.1,8.1-2.9
			c1.6,0.1,3.1,0.6,4.7,1.5c0.7,2.9,0.8,5.6,0.3,8.3c1.2,0.1,2.9-0.1,5.1-0.5c0.8-0.1,1.2,0.3,1.2,0.9c0,0.4-0.1,0.9-0.4,1.5
			c-1.3,0.6-3.6,0.9-6.9,1.2C420.2,48.1,415.6,52,408.6,54z M417.4,39.9c0.8-0.1,1.6-0.2,2.3-0.2c0.5-1.5,0.8-2.9,0.8-4.1
			c0-1.9-0.6-2.9-1.7-2.9c-1.3,0-3.1,1.4-5.4,4.3c-2.5,1.2-4.1,3-4.8,5.3c-0.4,1.2-0.5,3.7-0.5,7.4c4.5,0,8-2.5,10.6-7.5
			c-1.4-0.5-2.1-1-2.1-1.4C416.6,40.4,416.8,40.2,417.4,39.9z"/>
		<path class="st1" d="M476.9,44.1c-0.1,0.8-0.7,1.6-1.8,2.4c-7.2,4.9-11.6,7.4-13.3,7.4c-1.7,0-2.5-1.4-2.5-4.3
			c0-1.2,0.2-2.7,0.6-4.5c0.5-2.2,1-4.2,1.5-6c-1.6,0.1-3,0.9-4.3,2.5c-0.5,0.6-1.4,2.1-2.7,4.6c-1.7,3-3.4,4.5-5.1,4.5
			c-0.4,0-0.7-0.1-1.1-0.2c-0.6-1.1-0.7-2.6-0.4-4.4c0.5-1.6,1-3.6,1.7-6.1c-1.4,0.1-3.3,1.6-5.8,4.4c-1.6,2-3.3,4.1-4.9,6.1
			c-2.2,2.6-4.2,3.9-5.7,3.9c-0.5,0-1-0.1-1.5-0.3c0-2,0.6-4.5,1.9-7.4c1-2.3,2-4.6,3.1-7c-0.3-0.2-1.3,0.6-3.2,2.4
			c-0.3,0.3-0.7,0.7-1.3,1.4c-1.2,1.1-2.1,1.7-2.8,1.7c-0.8,0-1.1-0.5-1.1-1.4c0-0.6,0.4-1.3,1.2-2.2c0.7-0.6,1.3-1.1,1.9-1.7
			c1.3-1.2,2.5-2.2,3.5-3c1.7-2.8,2.8-4.4,3.2-4.8c1.3-1.4,3.1-2.2,5.3-2.2c0,1.1-0.8,3.7-2.3,7.7s-2.7,6.7-3.6,8.1
			c0.1,0,0.4,0.1,0.9,0.2c1.6-0.8,5.3-4.4,11-10.8l3.1-3.6c0.9-1.1,1.8-1.6,2.5-1.6s1.1,0.5,1.1,1.5c0,0.8-0.7,2.8-2.2,6.2
			c-0.9,2-1.5,3.8-1.8,5.3c-0.2,0.7-0.2,1.1-0.1,1.2c0.1,0.1,0.4-0.1,0.9-0.5c1.6-1.5,3.6-3.8,6.1-7c2.6-3.4,4.5-5.7,5.9-7.1
			c1.5,0,2.3,0.9,2.3,2.6c0,1.2-0.4,2.9-1.1,5.1c-0.6,1.7-1.1,3.4-1.7,5.1c-1.2,3.6-1.7,6.3-1.5,7.9c2-0.5,3.8-1.3,5.5-2.4
			c1.3-1.1,3.4-2.6,6.2-4.4C475.5,43.1,476.3,43.3,476.9,44.1z"/>
	</g>
</g>
</svg>
